<svg width="79" height="119" viewBox="0 0 79 119" fill="none" xmlns="http://www.w3.org/2000/svg">
<path d="M37.3515 7.79926C36.5381 1.82748 33.1805 4.35674 31.6034 6.36784C29.1787 9.22232 24.0332 16.0572 21.2091 19.2864C17.3329 23.7187 17.3358 26.2412 14.5637 26.5242C9.77552 27.0131 4.63921 31.574 3.83511 33.6744C3.03101 35.7748 2.73092 37.8237 5.09806 36.0683C6.99176 34.664 10.7083 34.4864 12.3298 34.5731C12.0023 34.6907 11.106 35.5558 10.1411 38.0763C7.33256 50.4727 8.54742 54.8897 9.10532 57.8602C9.66322 60.8306 11.2918 74.2877 24.6882 85.7865C35.4053 94.9856 49.0899 97.0027 54.5925 96.8614C55.7431 96.4916 58.4434 96.6701 60.0405 100.342C62.0369 104.931 67.6445 106.435 69.6029 109.205C74.6118 116.289 72.073 108.115 71.6536 106.765L71.6416 106.726C70.9591 105.03 69.5483 101.187 69.3648 99.3898C69.1354 97.1426 69.1099 96.8929 67.4959 96.0486C66.2047 95.3731 66.3689 94.9863 66.6124 94.8774C67.4439 94.7084 69.1619 93.9107 69.3816 92.0718C69.6278 87.001 70.2714 86.9353 71.3634 84.0487C81.1753 74.202 69.5955 80.8654 68.2855 81.3355C66.3374 82.2071 62.1649 84.7355 61.0595 87.8758C59.9542 91.016 58.0318 92.3055 57.2087 92.5577C56.2772 93.4097 52.6126 93.4306 45.4067 86.6987C36.3992 78.2838 34.0176 67.4264 33.4597 64.456C33.0134 62.0796 33.6418 62.0827 34.0118 62.3813L38.6018 64.9401C39.8468 66.3267 42.2648 67.8963 41.977 63.0818C41.6172 57.0638 37.8568 52.6543 34.9033 48.667C31.9499 44.6797 39.9771 33.5165 40.6282 29.918C41.2794 26.3196 41.755 23.4959 38.3456 17.5369C34.9363 11.5778 38.3682 15.264 37.3515 7.79926Z" fill="white"/>
</svg>
