<svg width="491" height="109" viewBox="0 0 491 109" fill="none" xmlns="http://www.w3.org/2000/svg">
<path d="M120.5 109C150.602 109 175 84.6021 175 54.5C175 24.3979 150.602 0 120.5 0C90.3979 0 66 24.3979 66 54.5C66 84.6021 90.3979 109 120.5 109ZM118.764 101.343L100.194 75.8908L118.764 86.6482V101.343ZM69.4721 54.5C69.4721 47.6177 70.8052 40.9215 73.4713 34.6283C76.0444 28.552 79.7335 23.0958 84.4147 18.4147C89.0959 13.7335 94.552 10.0444 100.628 7.47127C106.922 4.80518 113.587 3.47213 120.5 3.47213C127.382 3.47213 134.079 4.80518 140.372 7.47127C146.448 10.0444 151.904 13.7335 156.585 18.4147C161.267 23.0958 164.956 28.552 167.529 34.6283C170.195 40.9215 171.528 47.5867 171.528 54.5C171.528 58.0341 171.156 61.5373 170.443 64.9474L147.161 28.211C146.851 27.715 146.293 27.405 145.704 27.405C145.115 27.405 144.557 27.715 144.247 28.211L135.97 41.2935L121.957 19.2207C121.647 18.7247 121.089 18.4147 120.5 18.4147C119.911 18.4147 119.353 18.7247 119.043 19.2207L105.061 41.2625L96.7531 28.211C96.4431 27.715 95.8851 27.405 95.2961 27.405C94.7071 27.405 94.149 27.715 93.839 28.211L70.5262 64.9474C69.8131 61.5373 69.4721 58.0341 69.4721 54.5ZM92.444 41.7275C92.847 41.7275 93.219 41.5725 93.467 41.2315L95.3271 38.9064L97.3112 41.2625C97.5592 41.5415 97.9002 41.7275 98.3032 41.7275C98.3342 41.7275 98.3342 41.7275 98.3652 41.7275C98.7682 41.6965 99.1402 41.5105 99.3572 41.1695L100.163 40.0225L103.015 44.5486L96.2881 55.182L96.0091 55.058C95.5751 54.872 95.0791 54.872 94.6451 55.058L75.9824 62.9323L90.5529 39.9605L91.4519 41.2315C91.6689 41.5105 92.041 41.6965 92.444 41.7275ZM91.979 37.5734L95.2651 32.3652L98.6132 37.6354L98.1482 38.2864L96.2261 36.0233C95.9781 35.7443 95.6371 35.5583 95.2341 35.5583C95.2341 35.5583 95.2341 35.5583 95.2031 35.5583C94.8311 35.5583 94.459 35.7443 94.211 36.0543L92.444 38.2864L91.979 37.5734ZM112.192 52.5159L108.937 53.88L101.124 57.1971L98.3342 58.3751L99.5122 56.5151L105.061 47.7728L107.108 44.5176L115.106 31.9002L116.284 33.5432C116.532 33.8842 116.904 34.0702 117.307 34.0702C117.71 34.0702 118.082 33.9152 118.33 33.5742L120.5 30.8151L122.825 33.6052C123.073 33.8842 123.414 34.0702 123.817 34.0702C123.848 34.0702 123.848 34.0702 123.879 34.0702C124.282 34.0392 124.654 33.8532 124.871 33.5122L125.925 31.9932L133.861 44.5176L135.908 47.7728L141.457 56.5151L142.635 58.3751L139.845 57.1971L132.032 53.911L128.777 52.5469L121.151 49.3228C121.12 49.2918 121.089 49.2918 121.027 49.2918C120.996 49.2918 120.934 49.2608 120.903 49.2608C120.81 49.2298 120.748 49.2298 120.655 49.2298C120.624 49.2298 120.593 49.2298 120.562 49.2298C120.531 49.2298 120.5 49.2298 120.469 49.2298C120.438 49.2298 120.407 49.2298 120.376 49.2298C120.345 49.2298 120.314 49.2298 120.283 49.2298C120.19 49.2298 120.097 49.2608 120.035 49.2608C120.004 49.2608 119.942 49.2918 119.911 49.2918C119.88 49.2918 119.849 49.3228 119.787 49.3228L112.192 52.5159ZM118.764 53.539V62.9013V64.6374V68.3575V74.7747L97.7762 62.3743L101.124 60.9482L105.588 59.0572L110.828 56.8561L114.083 55.492L118.764 53.539ZM116.594 29.5751L120.5 23.4059L124.468 29.6371L123.755 30.6911L121.492 27.994C121.244 27.684 120.872 27.529 120.5 27.529C120.128 27.529 119.756 27.715 119.508 28.025L117.4 30.6911L116.594 29.5751ZM122.236 68.3575V64.6374V62.9013V53.539L126.917 55.523L130.172 56.8871L135.412 59.0882L139.876 60.9792L143.224 62.4053L122.236 74.8057V68.3575ZM137.985 44.5176L140.899 39.8985L141.798 41.1695C142.046 41.5105 142.418 41.6965 142.821 41.6965C143.224 41.6965 143.596 41.5415 143.844 41.2005L145.704 38.8754L147.688 41.2315C147.936 41.5105 148.277 41.6965 148.68 41.6965C148.711 41.6965 148.711 41.6965 148.742 41.6965C149.145 41.6655 149.517 41.4795 149.734 41.1385L150.54 39.9915L165.049 62.8703L146.386 54.996C145.952 54.81 145.456 54.81 145.022 54.996L144.743 55.12L137.985 44.5176ZM142.387 37.5734L145.673 32.3652L149.021 37.6354L148.556 38.2864L146.634 36.0233C146.386 35.7443 146.045 35.5583 145.642 35.5583C145.642 35.5583 145.642 35.5583 145.611 35.5583C145.239 35.5583 144.867 35.7443 144.619 36.0543L142.852 38.2864L142.387 37.5734ZM71.3632 68.3885C71.3942 68.3885 71.4252 68.3885 71.4562 68.3885C71.4872 68.3885 71.5182 68.3885 71.5492 68.3885C71.5802 68.3885 71.6112 68.3885 71.6422 68.3885C71.6732 68.3885 71.7042 68.3885 71.7352 68.3885C71.7662 68.3885 71.7972 68.3885 71.8282 68.3885C71.8592 68.3885 71.8902 68.3885 71.9212 68.3885C71.9522 68.3885 71.9832 68.3885 72.0142 68.3575C72.0452 68.3575 72.0762 68.3575 72.0762 68.3265C72.1072 68.3265 72.1382 68.2955 72.2002 68.2955H72.2312H72.2622L93.746 59.2432L92.475 61.2582C92.475 61.2892 92.444 61.2892 92.444 61.3202C92.413 61.3512 92.413 61.3823 92.382 61.4133C92.382 61.4443 92.351 61.4753 92.351 61.4753C92.351 61.5063 92.32 61.5373 92.32 61.5683C92.32 61.5993 92.289 61.6303 92.289 61.6303C92.289 61.6613 92.258 61.6923 92.258 61.7233C92.258 61.7543 92.258 61.7853 92.227 61.7853C92.227 61.8163 92.227 61.8473 92.196 61.8783C92.196 61.9093 92.196 61.9093 92.196 61.9403C92.196 61.9713 92.196 62.0023 92.196 62.0333C92.196 62.0643 92.196 62.0643 92.196 62.0953C92.196 62.1263 92.196 62.1573 92.196 62.1883C92.196 62.2193 92.196 62.2193 92.196 62.2503C92.196 62.2813 92.196 62.3123 92.196 62.3433C92.196 62.3743 92.196 62.3743 92.196 62.4053C92.196 62.4363 92.196 62.4673 92.227 62.4983V62.5293V62.5603C92.227 62.5913 92.258 62.6223 92.258 62.6533C92.258 62.6843 92.289 62.7153 92.289 62.7463C92.289 62.7773 92.289 62.7773 92.32 62.8083V62.8393C92.32 62.8703 92.351 62.9013 92.351 62.9323C92.351 62.9633 92.382 62.9943 92.382 63.0253C92.382 63.0563 92.413 63.0563 92.413 63.0873C92.444 63.1183 92.444 63.1493 92.475 63.1803C92.475 63.2113 92.506 63.2113 92.506 63.2423C92.537 63.2733 92.537 63.3043 92.568 63.3353C92.568 63.3663 92.599 63.3663 92.599 63.3973C92.63 63.4283 92.661 63.4593 92.661 63.4593C92.692 63.4593 92.692 63.4903 92.723 63.4903C92.754 63.5213 92.785 63.5213 92.816 63.5523C92.847 63.5523 92.847 63.5833 92.878 63.5833C92.909 63.6143 92.94 63.6143 92.971 63.6453C92.971 63.6453 93.002 63.6453 93.002 63.6763L119.601 79.3939C119.601 79.3939 119.601 79.3939 119.632 79.3939C119.694 79.4249 119.756 79.4559 119.818 79.4869C119.88 79.5179 119.942 79.5489 120.004 79.5489C120.035 79.5489 120.035 79.5489 120.066 79.5489C120.128 79.5489 120.159 79.5799 120.221 79.5799C120.252 79.5799 120.252 79.5799 120.283 79.5799C120.345 79.5799 120.438 79.5799 120.5 79.5799C120.562 79.5799 120.655 79.5799 120.717 79.5799C120.748 79.5799 120.748 79.5799 120.779 79.5799C120.841 79.5799 120.872 79.5489 120.934 79.5489C120.965 79.5489 120.965 79.5489 120.996 79.5489C121.058 79.5179 121.12 79.5179 121.182 79.4869C121.244 79.4559 121.306 79.4249 121.368 79.3939C121.368 79.3939 121.368 79.3939 121.399 79.3939L147.998 63.6763L148.029 63.6453C148.06 63.6453 148.06 63.6143 148.091 63.6143C148.153 63.5833 148.184 63.5523 148.246 63.4903L148.277 63.4593C148.339 63.3973 148.37 63.3663 148.432 63.3043C148.432 63.2733 148.463 63.2733 148.463 63.2423C148.494 63.1803 148.525 63.1493 148.587 63.0873L148.618 63.0563C148.649 62.9943 148.68 62.9323 148.711 62.8393C148.711 62.8393 148.711 62.8393 148.711 62.8083C148.711 62.7773 148.711 62.7773 148.742 62.7463C148.742 62.7153 148.773 62.6843 148.773 62.6533C148.773 62.6223 148.804 62.5913 148.804 62.5603V62.5293V62.4983C148.804 62.4673 148.804 62.4363 148.835 62.4053C148.835 62.3743 148.835 62.3743 148.835 62.3433C148.835 62.3123 148.835 62.2813 148.835 62.2503C148.835 62.2193 148.835 62.2193 148.835 62.1883C148.835 62.1573 148.835 62.1263 148.835 62.0953C148.835 62.0643 148.835 62.0643 148.835 62.0333C148.835 62.0023 148.835 61.9713 148.835 61.9403C148.835 61.9093 148.835 61.8783 148.835 61.8783C148.835 61.8473 148.835 61.8163 148.804 61.7853C148.804 61.7543 148.804 61.7233 148.773 61.7233C148.773 61.6923 148.742 61.6613 148.742 61.6303C148.742 61.5993 148.711 61.5683 148.711 61.5683C148.711 61.5373 148.68 61.5063 148.68 61.4753C148.68 61.4443 148.649 61.4133 148.649 61.4133C148.649 61.3823 148.618 61.3512 148.587 61.3202C148.587 61.2892 148.556 61.2892 148.556 61.2582L147.285 59.2432L168.8 68.3265H168.831C168.862 68.3265 168.862 68.3575 168.893 68.3575C168.924 68.3575 168.986 68.3885 169.017 68.3885C169.048 68.3885 169.048 68.3885 169.079 68.3885C169.141 68.3885 169.172 68.4195 169.234 68.4195H169.265C169.327 68.4195 169.389 68.4195 169.451 68.4195H169.482C169.513 68.4195 169.544 68.4195 169.575 68.4195C169.017 70.4346 168.304 72.4497 167.467 74.4027C164.894 80.4789 161.204 85.9351 156.523 90.6163C151.842 95.2975 146.386 98.9866 140.31 101.56C134.947 103.823 129.273 105.156 123.476 105.466L148.463 70.4346C148.928 69.7526 148.897 68.8535 148.308 68.2335C147.75 67.6445 146.82 67.5205 146.138 67.9235L120.438 83.6721L94.7381 68.7915C94.025 68.3885 93.126 68.5125 92.568 69.1325C92.01 69.7526 91.979 70.6516 92.444 71.3336L117.4 105.497C111.603 105.156 105.96 103.854 100.597 101.591C94.521 99.0176 89.0648 95.3285 84.3837 90.6473C79.7025 85.9661 76.0134 80.51 73.4403 74.4337C72.6342 72.3877 71.9522 70.4036 71.3632 68.3885ZM122.236 101.219V86.6172L140.713 75.3018L122.236 101.219Z" fill="white"/>
<path d="M216.965 73.0825H204.836V55.4463H214.738V47.009H204.836V30.0173H216.965V21.3457H194.7V81.7541H216.965V73.0825Z" fill="white"/>
<path d="M231.379 81.7541H241.398V30.0173H249.015V21.3457H223.762V30.0173H231.379V81.7541Z" fill="white"/>
<path d="M283.819 81.7541V21.3457H273.916V47.8879H265.655V21.3457H255.753V81.7541H265.655V56.208H273.916V81.7541H283.819Z" fill="white"/>
<path d="M292.607 21.3457V81.7541H312.118C317.157 81.7541 320.439 78.4144 320.439 73.434V29.6658C320.439 24.6268 317.099 21.3457 312.118 21.3457H292.607ZM310.302 71.6177C310.302 72.438 309.775 73.0239 308.896 73.0239H302.744V29.9587H308.896C309.775 29.9587 310.302 30.6032 310.302 31.3649V71.6177Z" fill="white"/>
<path d="M352.723 30.0173V21.3457H330.458V81.7541H352.723V73.0825H340.594V55.4463H350.496V47.009H340.594V30.0173H352.723Z" fill="white"/>
<path d="M380.613 57.6728L369.129 21.3457H360.691V81.7541H369.246V47.7121L380.788 81.7541H389.108V21.3457H380.613V57.6728Z" fill="white"/>
<path d="M416.119 21.3457L411.256 63.2976L406.51 21.3457H396.315L406.1 81.7541H416.178L425.846 21.3457H416.119Z" fill="white"/>
<path d="M433.111 81.7541H455.376V73.0825H443.247V55.4463H453.15V47.009H443.247V30.0173H455.376V21.3457H433.111V81.7541Z" fill="white"/>
<path d="M486.43 61.1883C489.184 60.1922 490.883 57.6728 490.883 54.2158V28.7869C490.883 24.3339 488.129 21.3457 483.617 21.3457H463.286V81.7541H473.422V61.5984H476.821L481.039 81.7541H491L486.43 61.1883ZM481.098 52.5167C481.098 52.8682 480.746 53.337 480.453 53.337H473.481V30.0759H480.453C480.746 30.0759 481.098 30.5447 481.098 30.9548V52.5167Z" fill="white"/>
<path d="M22.888 38.0959H14.184V49.7439H2.536V58.4479H14.184V70.16H22.888V58.4479H34.6V49.7439H22.888V38.0959Z" stroke="white" stroke-width="4"/>
</svg>
