<svg width="276" height="392" viewBox="0 0 276 392" fill="none" xmlns="http://www.w3.org/2000/svg">
<path d="M209.5 331.638L187.5 375.138L195 391.638H181.5L172.5 375.138V367.138L160 369.138C124.8 370.738 112 364.805 110 361.638L100.5 377.638L66.5 391.638V377.638L82 367.138L78 324.638L66.5 294.638L46.5 280.638L34 286.638L12 318.138V306.138H0L46.5 246.138L28 253.138C21.2 233.938 29.1667 216.805 34 210.638C38 203.038 35.6667 203.138 34 204.138L20.5 207.638C20.5 202.038 29.5 190.638 34 185.638L36.5 167.138L25 171.138C25 151.538 31 140.971 34 138.138L20.5 142.138C20.9 127.738 38 114.805 46.5 110.138L36.5 104.138C46.5 90.138 74.3333 90.3047 87 92.1381L82 81.1381C97.2 72.3381 119 75.1381 128 77.6381V68.1381C139.6 62.5381 154.833 70.4714 161 75.1381C168.5 55.1381 184.3 13.0381 187.5 4.63807C190.7 -3.76193 197.167 1.13807 200 4.63807V77.6381H207L204 92.1381C212.8 84.5381 232 88.9714 240.5 92.1381L234.5 106.638C245.3 103.838 255 107.805 258.5 110.138L251 121.638L264.5 124.638L251 192.138H243C247 200.138 244.667 205.805 243 207.638L231 214.638L223.5 237.138L214 239.638V246.138H243L264.5 220.138V232.138L275.5 226.138L251 266.638L204 286.638C217.2 322.638 213.167 331.638 209.5 331.638Z" fill="white"/>
</svg>
