<svg width="32" height="32" viewBox="0 0 32 32" fill="none" xmlns="http://www.w3.org/2000/svg">
<mask id="mask0" mask-type="alpha" maskUnits="userSpaceOnUse" x="2" y="0" width="28" height="32">
<path d="M29.6222 23.9355V8.06446L15.8111 0L2 8.06446L2 23.9355L15.8111 32L29.6222 23.9355Z" fill="white"/>
</mask>
<g mask="url(#mask0)">
<path d="M8.712 -1.08798L10.2051 -3.67413L8.73582 -6.4381L5.6075 -6.32857L4.11438 -3.74241L5.58368 -0.978438L8.712 -1.08798Z" fill="#995BFC"/>
<path d="M7.30184 1.35453L8.79496 -1.23163L7.32566 -3.9956L4.19735 -3.88606L2.70423 -1.2999L4.17352 1.46407L7.30184 1.35453Z" fill="#8840FA"/>
<path d="M5.89168 3.797L7.3848 1.21085L5.91551 -1.55312L2.78719 -1.44359L1.29407 1.14257L2.76337 3.90654L5.89168 3.797Z" fill="#7927FB"/>
<path d="M4.48153 6.23948L5.97465 3.65332L4.50535 0.88935L1.37703 0.998888L-0.116086 3.58505L1.35321 6.34902L4.48153 6.23948Z" fill="#6511E9"/>
<path d="M3.07137 8.68195L4.56449 6.0958L3.09519 3.33182L-0.0331236 3.44136L-1.52624 6.02752L-0.0569465 8.79149L3.07137 8.68195Z" fill="#5A0BD7"/>
<path d="M1.66121 11.1244L3.15433 8.53827L1.68504 5.7743L-1.44328 5.88384L-2.9364 8.46999L-1.4671 11.234L1.66121 11.1244Z" fill="#5107C5"/>
<path d="M0.251058 13.5669L1.74418 10.9808L0.274881 8.2168L-2.85344 8.32634L-4.34656 10.9125L-2.87726 13.6765L0.251058 13.5669Z" fill="#4706AF"/>
<path d="M8.712 -1.08798L10.2051 -3.67413L8.73582 -6.4381L5.6075 -6.32857L4.11438 -3.74241L5.58368 -0.978438L8.712 -1.08798Z" fill="#8335FF"/>
<path d="M7.30184 1.35453L8.79496 -1.23163L7.32566 -3.9956L4.19735 -3.88606L2.70423 -1.2999L4.17352 1.46407L7.30184 1.35453Z" fill="#7926FD"/>
<path d="M5.89168 3.797L7.3848 1.21085L5.91551 -1.55312L2.78719 -1.44359L1.29407 1.14257L2.76337 3.90654L5.89168 3.797Z" fill="#7019FB"/>
<path d="M4.48153 6.23948L5.97465 3.65332L4.50535 0.88935L1.37703 0.998888L-0.116086 3.58505L1.35321 6.34902L4.48153 6.23948Z" fill="#6511E9"/>
<path d="M3.07137 8.68195L4.56449 6.0958L3.09519 3.33182L-0.0331236 3.44136L-1.52624 6.02752L-0.0569465 8.79149L3.07137 8.68195Z" fill="#5A0BD7"/>
<path d="M1.66121 11.1244L3.15433 8.53827L1.68504 5.7743L-1.44328 5.88384L-2.9364 8.46999L-1.4671 11.234L1.66121 11.1244Z" fill="#5107C5"/>
<path d="M0.251058 13.5669L1.74418 10.9808L0.274881 8.2168L-2.85344 8.32634L-4.34656 10.9125L-2.87726 13.6765L0.251058 13.5669Z" fill="#4706AF"/>
<path d="M13.3094 1.56635L14.8025 -1.01981L13.3332 -3.78378L10.2049 -3.67424L8.71179 -1.08808L10.1811 1.67589L13.3094 1.56635Z" fill="#8335FF"/>
<path d="M11.8993 4.00883L13.3924 1.42267L11.9231 -1.3413L8.79476 -1.23176L7.30164 1.35439L8.77093 4.11836L11.8993 4.00883Z" fill="#7926FD"/>
<path d="M10.4891 6.45133L11.9822 3.86517L10.5129 1.1012L7.3846 1.21074L5.89148 3.7969L7.36078 6.56087L10.4891 6.45133Z" fill="#7019FB"/>
<path d="M9.07894 8.89378L10.5721 6.30762L9.10276 3.54365L5.97444 3.65318L4.48133 6.23934L5.95062 9.00331L9.07894 8.89378Z" fill="#6511E9"/>
<path d="M7.66878 11.3363L9.1619 8.75012L7.69261 5.98615L4.56429 6.09569L3.07117 8.68185L4.54047 11.4458L7.66878 11.3363Z" fill="#5A0BD7"/>
<path d="M6.25863 13.7788L7.75175 11.1926L6.28245 8.42863L3.15413 8.53816L1.66101 11.1243L3.13031 13.8883L6.25863 13.7788Z" fill="#5107C5"/>
<path d="M4.84847 16.2213L6.34159 13.6351L4.87229 10.8711L1.74398 10.9807L0.250857 13.5668L1.72015 16.3308L4.84847 16.2213Z" fill="#4706AF"/>
<path d="M3.43831 18.6637L4.93143 16.0776L3.46214 13.3136L0.33382 13.4231L-1.1593 16.0093L0.309997 18.7733L3.43831 18.6637Z" fill="#3A0492"/>
<path d="M2.02816 21.1062L3.52128 18.5201L2.05198 15.7561L-1.07634 15.8656L-2.56946 18.4518L-1.10016 21.2157L2.02816 21.1062Z" fill="#30017B"/>
<path d="M0.618001 23.5487L2.11112 20.9625L0.641824 18.1985L-2.48649 18.3081L-3.97961 20.8942L-2.51032 23.6582L0.618001 23.5487Z" fill="#2A026C"/>
<path d="M17.9071 4.22092L19.4002 1.63477L17.9309 -1.1292L14.8026 -1.01967L13.3095 1.56649L14.7787 4.33046L17.9071 4.22092Z" fill="#8335FF"/>
<path d="M16.4969 6.6634L17.99 4.07724L16.5207 1.31327L13.3924 1.42281L11.8993 4.00896L13.3686 6.77294L16.4969 6.6634Z" fill="#7926FD"/>
<path d="M15.0868 9.1059L16.5799 6.51975L15.1106 3.75578L11.9823 3.86531L10.4891 6.45147L11.9584 9.21544L15.0868 9.1059Z" fill="#7019FB"/>
<path d="M13.6766 11.5484L15.1697 8.96222L13.7004 6.19825L10.5721 6.30779L9.07898 8.89394L10.5483 11.6579L13.6766 11.5484Z" fill="#6511E9"/>
<path d="M12.2664 13.9909L13.7596 11.4047L12.2903 8.64075L9.16194 8.75029L7.66883 11.3364L9.13812 14.1004L12.2664 13.9909Z" fill="#5A0BD7"/>
<path d="M10.8563 16.4333L12.3494 13.8472L10.8801 11.0832L7.75179 11.1927L6.25867 13.7789L7.72797 16.5429L10.8563 16.4333Z" fill="#5107C5"/>
<path d="M9.44613 18.8758L10.9392 16.2896L9.46995 13.5257L6.34163 13.6352L4.84851 16.2214L6.31781 18.9853L9.44613 18.8758Z" fill="#4706AF"/>
<path d="M8.03597 21.3183L9.52909 18.7321L8.05979 15.9681L4.93148 16.0777L3.43836 18.6638L4.90765 21.4278L8.03597 21.3183Z" fill="#3A0492"/>
<path d="M6.62581 23.7608L8.11893 21.1746L6.64964 18.4107L3.52132 18.5202L2.0282 21.1063L3.4975 23.8703L6.62581 23.7608Z" fill="#30017B"/>
<path d="M5.21566 26.2033L6.70878 23.6171L5.23948 20.8531L2.11116 20.9627L0.618045 23.5488L2.08734 26.3128L5.21566 26.2033Z" fill="#2A026C"/>
<path d="M22.5047 6.87525L23.9978 4.28909L22.5285 1.52512L19.4002 1.63466L17.9071 4.22082L19.3764 6.98479L22.5047 6.87525Z" fill="#8335FF"/>
<path d="M21.0946 9.31776L22.5877 6.7316L21.1184 3.96763L17.9901 4.07717L16.497 6.66332L17.9662 9.42729L21.0946 9.31776Z" fill="#7926FD"/>
<path d="M19.6844 11.7602L21.1775 9.17404L19.7082 6.41007L16.5799 6.51961L15.0868 9.10577L16.5561 11.8697L19.6844 11.7602Z" fill="#7019FB"/>
<path d="M18.2743 14.2027L19.7674 11.6165L18.2981 8.85258L15.1698 8.96211L13.6766 11.5483L15.1459 14.3122L18.2743 14.2027Z" fill="#6511E9"/>
<path d="M16.8641 16.6452L18.3572 14.059L16.8879 11.2951L13.7596 11.4046L12.2665 13.9907L13.7358 16.7547L16.8641 16.6452Z" fill="#5A0BD7"/>
<path d="M15.4539 19.0877L16.9471 16.5015L15.4778 13.7376L12.3494 13.8471L10.8563 16.4333L12.3256 19.1972L15.4539 19.0877Z" fill="#5107C5"/>
<path d="M14.0438 21.5302L15.5369 18.944L14.0676 16.18L10.9393 16.2896L9.44617 18.8757L10.9155 21.6397L14.0438 21.5302Z" fill="#4706AF"/>
<path d="M12.6336 23.9727L14.1267 21.3865L12.6574 18.6225L9.52913 18.7321L8.03601 21.3182L9.50531 24.0822L12.6336 23.9727Z" fill="#3A0492"/>
<path d="M11.2235 26.4151L12.7166 23.829L11.2473 21.065L8.11898 21.1745L6.62586 23.7607L8.09515 26.5247L11.2235 26.4151Z" fill="#30017B"/>
<path d="M9.81331 28.8576L11.3064 26.2714L9.83714 23.5075L6.70882 23.617L5.2157 26.2031L6.685 28.9671L9.81331 28.8576Z" fill="#2A026C"/>
<path d="M27.1024 9.52955L28.5955 6.94339L27.1262 4.17942L23.9979 4.28896L22.5048 6.87511L23.9741 9.63909L27.1024 9.52955Z" fill="#8335FF"/>
<path d="M25.6922 11.972L27.1853 9.38586L25.716 6.62189L22.5877 6.73143L21.0946 9.31759L22.5639 12.0816L25.6922 11.972Z" fill="#7926FD"/>
<path d="M24.2821 14.4145L25.7752 11.8283L24.3059 9.06437L21.1776 9.17391L19.6845 11.7601L21.1537 14.524L24.2821 14.4145Z" fill="#7019FB"/>
<path d="M22.8719 16.857L24.365 14.2708L22.8957 11.5069L19.7674 11.6164L18.2743 14.2026L19.7436 16.9665L22.8719 16.857Z" fill="#6511E9"/>
<path d="M21.4618 19.2995L22.9549 16.7133L21.4856 13.9493L18.3573 14.0589L16.8641 16.645L18.3334 19.409L21.4618 19.2995Z" fill="#5A0BD7"/>
<path d="M20.0516 21.742L21.5447 19.1558L20.0754 16.3919L16.9471 16.5014L15.454 19.0875L16.9233 21.8515L20.0516 21.742Z" fill="#5107C5"/>
<path d="M18.6414 24.1845L20.1346 21.5983L18.6653 18.8343L15.5369 18.9439L14.0438 21.53L15.5131 24.294L18.6414 24.1845Z" fill="#4706AF"/>
<path d="M17.2313 26.627L18.7244 24.0408L17.2551 21.2768L14.1268 21.3864L12.6337 23.9725L14.103 26.7365L17.2313 26.627Z" fill="#3A0492"/>
<path d="M15.8211 29.0694L17.3142 26.4833L15.8449 23.7193L12.7166 23.8288L11.2235 26.415L12.6928 29.179L15.8211 29.0694Z" fill="#30017B"/>
<path d="M14.411 31.5119L15.9041 28.9257L14.4348 26.1618L11.3065 26.2713L9.81336 28.8574L11.2827 31.6214L14.411 31.5119Z" fill="#2A026C"/>
<path d="M31.7 12.1841L33.1932 9.59796L31.7239 6.83399L28.5955 6.94353L27.1024 9.52969L28.5717 12.2937L31.7 12.1841Z" fill="#8335FF"/>
<path d="M30.2899 14.6266L31.783 12.0404L30.3137 9.27644L27.1854 9.38597L25.6923 11.9721L27.1616 14.7361L30.2899 14.6266Z" fill="#7926FD"/>
<path d="M28.8797 17.069L30.3728 14.4829L28.9035 11.7189L25.7752 11.8284L24.2821 14.4146L25.7514 17.1786L28.8797 17.069Z" fill="#7019FB"/>
<path d="M27.4696 19.5115L28.9627 16.9254L27.4934 14.1614L24.3651 14.271L22.872 16.8571L24.3412 19.6211L27.4696 19.5115Z" fill="#6511E9"/>
<path d="M26.0594 21.954L27.5525 19.3679L26.0832 16.6039L22.9549 16.7134L21.4618 19.2996L22.9311 22.0636L26.0594 21.954Z" fill="#5A0BD7"/>
<path d="M24.6493 24.3965L26.1424 21.8104L24.6731 19.0464L21.5448 19.1559L20.0516 21.7421L21.5209 24.5061L24.6493 24.3965Z" fill="#5107C5"/>
<path d="M23.2391 26.839L24.7322 24.2528L23.2629 21.4889L20.1346 21.5984L18.6415 24.1846L20.1108 26.9485L23.2391 26.839Z" fill="#4706AF"/>
<path d="M21.8287 29.2815L23.3218 26.6953L21.8525 23.9314L18.7242 24.0409L17.2311 26.6271L18.7004 29.391L21.8287 29.2815Z" fill="#3A0492"/>
<path d="M20.4185 31.724L21.9117 29.1378L20.4424 26.3738L17.314 26.4834L15.8209 29.0695L17.2902 31.8335L20.4185 31.724Z" fill="#30017B"/>
<path d="M19.0084 34.1664L20.5015 31.5803L19.0322 28.8163L15.9039 28.9258L14.4108 31.512L15.8801 34.276L19.0084 34.1664Z" fill="#2A026C"/>
<path d="M34.8875 17.281L36.3807 14.6948L34.9114 11.9309L31.783 12.0404L30.2899 14.6265L31.7592 17.3905L34.8875 17.281Z" fill="#7926FD"/>
<path d="M33.4774 19.7235L34.9705 17.1373L33.5012 14.3733L30.3729 14.4829L28.8798 17.069L30.3491 19.833L33.4774 19.7235Z" fill="#7019FB"/>
<path d="M32.0672 22.1659L33.5603 19.5798L32.091 16.8158L28.9627 16.9253L27.4696 19.5115L28.9389 22.2755L32.0672 22.1659Z" fill="#6511E9"/>
<path d="M30.6568 24.6084L32.1499 22.0223L30.6806 19.2583L27.5523 19.3678L26.0592 21.954L27.5285 24.718L30.6568 24.6084Z" fill="#5A0BD7"/>
<path d="M29.2467 27.0509L30.7398 24.4648L29.2705 21.7008L26.1422 21.8103L24.6491 24.3965L26.1183 27.1604L29.2467 27.0509Z" fill="#5107C5"/>
<path d="M27.8365 29.4934L29.3296 26.9073L27.8603 24.1433L24.732 24.2528L23.2389 26.839L24.7082 29.603L27.8365 29.4934Z" fill="#4706AF"/>
<path d="M26.4264 31.9359L27.9195 29.3497L26.4502 26.5858L23.3219 26.6953L21.8287 29.2815L23.298 32.0454L26.4264 31.9359Z" fill="#3A0492"/>
<path d="M25.0162 34.3784L26.5093 31.7922L25.04 29.0283L21.9117 29.1378L20.4186 31.724L21.8879 34.4879L25.0162 34.3784Z" fill="#30017B"/>
<path d="M23.606 36.8208L25.0992 34.2347L23.6299 31.4707L20.5015 31.5802L19.0084 34.1664L20.4777 36.9303L23.606 36.8208Z" fill="#2A026C"/>
<path d="M33.8443 29.7054L35.3374 27.1192L33.8681 24.3553L30.7398 24.4648L29.2467 27.051L30.716 29.8149L33.8443 29.7054Z" fill="#5107C5"/>
<path d="M32.4342 32.1479L33.9273 29.5617L32.458 26.7978L29.3297 26.9073L27.8366 29.4935L29.3058 32.2574L32.4342 32.1479Z" fill="#4706AF"/>
<path d="M31.024 34.5904L32.5171 32.0042L31.0478 29.2402L27.9195 29.3498L26.4264 31.9359L27.8957 34.6999L31.024 34.5904Z" fill="#3A0492"/>
<path d="M29.6139 37.0329L31.107 34.4467L29.6377 31.6827L26.5094 31.7923L25.0162 34.3784L26.4855 37.1424L29.6139 37.0329Z" fill="#30017B"/>
<path fill-rule="evenodd" clip-rule="evenodd" d="M19.5263 8.85992C21.6619 8.85992 23.3932 10.601 23.3932 12.7488V14.9849C23.3932 17.1327 21.6619 18.8738 19.5263 18.8738C19.1908 18.8738 18.8653 18.8309 18.555 18.7501V18.9875C18.555 20.5892 17.2565 21.8877 15.6548 21.8877V13.3321H15.6593V12.7488C15.6593 10.601 17.3906 8.85992 19.5263 8.85992ZM19.5263 11.7766C18.9924 11.7766 18.5596 12.2119 18.5596 12.7489V14.985C18.5596 15.5219 18.9924 15.9572 19.5263 15.9572C20.0603 15.9572 20.4931 15.5219 20.4931 14.985V12.7489C20.4931 12.2119 20.0603 11.7766 19.5263 11.7766Z" fill="white"/>
<path d="M14.2996 21.9358V20.4273C14.2996 18.9714 13.5941 17.4554 11.6503 17.4554C9.7516 17.4554 9.04614 18.9939 9.04614 20.3598V21.9358H14.2996ZM10.0518 20.72V20.4799C10.0518 19.3842 10.6297 18.7462 11.7179 18.7462C12.8661 18.7462 13.2939 19.5268 13.2939 20.6525V20.72H10.0518Z" fill="white"/>
<path d="M14.2996 11.8266L9.04614 13.7854V14.7535L14.2996 16.9374V15.594L13.3765 15.2638V13.5302L14.2996 13.2225V11.8266ZM10.8923 14.3707V14.3632L12.4083 13.8604V14.9111L10.8923 14.3707Z" fill="white"/>
<path d="M14.2996 9.74935H9.04614V10.9651H14.2996V9.74935Z" fill="white"/>
</g>
</svg>
