<svg width="145" height="95" viewBox="0 0 145 95" fill="none" xmlns="http://www.w3.org/2000/svg">
<g clip-path="url(#clip0)">
<path d="M19.3724 15.4839C30.0589 15.4839 38.722 24.2443 38.722 35.0509V46.3019C38.722 57.1085 30.0589 65.8689 19.3724 65.8689C17.6937 65.8689 16.065 65.6528 14.5119 65.2465L14.5122 66.5211C14.5122 74.4305 8.18473 80.8621 0.315575 81.03L0 81.0333V37.9859L0.0219955 37.9859L0.0227585 35.0509C0.0227585 24.2443 8.68588 15.4839 19.3724 15.4839ZM106.025 15.4839C116.717 15.4839 125.386 24.2944 125.386 35.1627V46.4781C125.386 57.3464 116.717 66.1569 106.025 66.1569C95.3317 66.1569 86.6635 57.3464 86.6635 46.4781V35.1627C86.6635 24.2944 95.3317 15.4839 106.025 15.4839ZM62.6928 14.5541C73.3855 14.5541 82.0538 23.3646 82.0538 34.2329V45.5483C82.0538 56.4166 73.3855 65.2271 62.6928 65.2271C52 65.2271 43.3318 56.4166 43.3318 45.5483V34.2329C43.3318 23.3646 52 14.5541 62.6928 14.5541ZM144.747 0.607422V50.4759C144.747 58.5169 138.313 65.0553 130.312 65.2238L129.995 65.2271V15.3587C129.995 7.21177 136.6 0.607422 144.747 0.607422ZM106.025 30.243C103.351 30.243 101.184 32.4456 101.184 35.1627V46.4781C101.184 49.1951 103.351 51.3978 106.025 51.3978C108.698 51.3978 110.865 49.1951 110.865 46.4781V35.1627C110.865 32.4456 108.698 30.243 106.025 30.243ZM19.3724 30.1591C16.7008 30.1591 14.535 32.3493 14.535 35.0509V46.3019C14.535 49.0036 16.7008 51.1937 19.3724 51.1937C22.044 51.1937 24.2098 49.0036 24.2098 46.3019V35.0509C24.2098 32.3493 22.044 30.1591 19.3724 30.1591ZM62.6928 29.3132C60.0196 29.3132 57.8525 31.5159 57.8525 34.2329V45.5483C57.8525 48.2654 60.0196 50.468 62.6928 50.468C65.366 50.468 67.533 48.2654 67.533 45.5483V34.2329C67.533 31.5159 65.366 29.3132 62.6928 29.3132Z" fill="white"/>
<path d="M37.4905 89C34.4696 89 32.795 87.4395 32.795 84.0955V76.5159H32.0397C30.9233 76.5159 30.3979 75.9427 30.3979 74.9554V74.5732C30.3979 73.6497 30.8905 73.0446 32.0069 73.0446H32.795V71.0701C32.795 69.6369 33.5173 69 34.7651 69H35.2248C36.4726 69 37.2278 69.5414 37.2278 71.0701V73.0446H39.592C40.6755 73.0446 41.2337 73.5541 41.2337 74.5414V74.9236C41.2337 75.9745 40.6427 76.5159 39.592 76.5159H37.1621V83.172C37.1621 84.7962 37.6546 85.3694 38.6397 85.3694C39.3949 85.3694 40.0517 84.9873 40.4457 84.4459C40.6099 84.4459 41.3979 85.0191 41.3979 86.2293C41.3979 86.8981 41.1681 87.5032 40.577 88.0127C39.9203 88.6178 38.9024 89 37.4905 89ZM42.3979 80.9843C42.3979 76.1311 45.3789 73 49.9455 73C54.417 73 57.3979 76.1311 57.3979 81.047C57.3979 85.8689 54.417 89 49.8821 89C45.3155 89 42.3979 85.8689 42.3979 80.9843ZM53.3979 80.5306C53.3979 77.5612 52.0368 76 49.9303 76C47.7915 76 46.3979 77.5306 46.3979 80.5C46.3979 83.4388 47.7915 85 49.9303 85C52.0044 85 53.3979 83.4388 53.3979 80.5306ZM65.4973 95C60.6799 95 58.3979 93.5465 58.3979 91.0106C58.3979 89.0622 60.1728 87.6396 62.8984 87.0521C62.4547 86.7428 62.1378 86.248 62.1378 85.5985C62.1378 84.8563 62.6449 84.176 63.3421 83.8667C60.7433 83.1863 59.2537 81.2998 59.2537 78.8258C59.2537 75.5167 61.9793 73.1663 65.6875 73.1663C66.7334 73.1663 67.7159 73.3828 68.5716 73.7849L69.2372 72.5788C69.776 71.4036 70.4732 70.9706 71.2973 71.0015C72.8186 71.0325 73.4841 72.7643 73.389 72.9189L70.9486 75.393C71.7727 76.3208 72.2481 77.465 72.2481 78.7949C72.2481 81.8874 69.871 84.0522 66.2897 84.145H65.7192C65.5924 84.2997 65.5924 84.5471 65.7826 84.7326C66.0044 85.3511 67.3355 85.4748 69.2689 86.0624C71.2022 86.6809 73.2306 87.7943 73.2306 90.2374C73.2306 93.0517 70.5366 95 65.4973 95ZM65.9137 82C67.4231 82 68.3979 80.9468 68.3979 78.9681C68.3979 77.0213 67.4231 76 65.8822 76C64.4042 76 63.3979 77.0213 63.3979 78.9681C63.3979 80.9468 64.4042 82 65.9137 82ZM65.8158 93C68.0834 93 69.3979 92.3231 69.3979 91.0923C69.3979 90.2 68.4778 89.7077 67.1961 89.3385C66.7688 89.2154 66.3087 89.0923 65.8486 89C63.8768 89.2769 62.3979 90.0769 62.3979 91.2462C62.3979 92.3538 63.581 93 65.8158 93ZM73.3979 81.1092C73.3979 76.2437 76.2794 73 80.5702 73C84.8297 73 87.3979 75.9318 87.3979 80.5166V80.7973C87.3979 81.577 87.1161 82.0136 86.2704 82.0136H77.3129C77.3442 82.1696 77.3442 82.3879 77.3756 82.5439C77.6574 84.6023 79.0668 85.7251 80.946 85.7251C82.7626 85.7251 83.8275 84.8518 84.4225 83.5731C84.7671 83.5419 86.7402 83.7602 86.7402 85.4444C86.7402 86.2554 86.3017 87.0975 85.3621 87.7836C84.3912 88.4698 82.8565 89 80.7894 89C76.342 89 73.3979 86.037 73.3979 81.1092ZM83.3979 80C83.3358 77.5385 82.372 76 80.5378 76C78.7658 76 77.5845 77.5726 77.3979 80H83.3979ZM95.4905 89C92.4696 89 90.795 87.4395 90.795 84.0955V76.5159H90.0397C88.9233 76.5159 88.3979 75.9427 88.3979 74.9554V74.5732C88.3979 73.6497 88.8905 73.0446 90.0069 73.0446H90.795V71.0701C90.795 69.6369 91.5173 69 92.7651 69H93.2248C94.4726 69 95.2278 69.5414 95.2278 71.0701V73.0446H97.592C98.6755 73.0446 99.2337 73.5541 99.2337 74.5414V74.9236C99.2337 75.9745 98.6427 76.5159 97.592 76.5159H95.1621V83.172C95.1621 84.7962 95.6546 85.3694 96.6397 85.3694C97.3949 85.3694 98.0517 84.9873 98.4457 84.4459C98.6099 84.4459 99.3979 85.0191 99.3979 86.2293C99.3979 86.8981 99.1681 87.5032 98.577 88.0127C97.9203 88.6178 96.9024 89 95.4905 89ZM110.237 73.1146C113.946 73.1146 115.398 75.8567 115.398 79.2607V86.9513C115.398 88.4327 114.656 89 113.495 89H112.979C111.753 89 111.011 88.4642 111.011 86.9513V79.6075C111.011 77.8424 110.204 76.7077 108.624 76.7077C107.043 76.7077 105.914 77.7163 105.753 79.4183V86.9513C105.753 88.4327 105.043 89 103.85 89H103.366C102.14 89 101.398 88.4642 101.398 86.9513V67.5358C101.398 67.3782 102.172 67 103.075 67C104.398 67 105.753 67.7249 105.753 70.3725V75.8883C106.591 74.2493 108.043 73.1146 110.237 73.1146ZM117.398 81.1092C117.398 76.2437 120.279 73 124.57 73C128.83 73 131.398 75.9318 131.398 80.5166V80.7973C131.398 81.577 131.116 82.0136 130.27 82.0136H121.313C121.344 82.1696 121.344 82.3879 121.376 82.5439C121.657 84.6023 123.067 85.7251 124.946 85.7251C126.763 85.7251 127.827 84.8518 128.423 83.5731C128.767 83.5419 130.74 83.7602 130.74 85.4444C130.74 86.2554 130.302 87.0975 129.362 87.7836C128.391 88.4698 126.857 89 124.789 89C120.342 89 117.398 86.037 117.398 81.1092ZM127.398 80C127.336 77.5385 126.372 76 124.538 76C122.766 76 121.584 77.5726 121.398 80H127.398ZM141.771 73C143.417 73 144.398 74.0794 144.398 75.6667C144.398 77.6032 143.037 78.2064 142.974 78.1746C142.594 77.7302 142.025 77.381 141.233 77.381C139.461 77.381 138.67 79.0317 138.67 82.1746V86.9365C138.67 88.4286 137.974 89 136.771 89H136.328C135.126 89 134.398 88.4603 134.398 86.9365V73.6667C134.398 73.5079 135.094 73.1905 135.949 73.1905C136.961 73.1905 137.752 73.6349 138.1 74.8413C138.227 75.2857 138.322 75.7937 138.354 76.3333C138.828 74.2698 140.031 73 141.771 73Z" fill="white"/>
</g>
<defs>
<clipPath id="clip0">
<rect width="145" height="95" fill="white"/>
</clipPath>
</defs>
</svg>
