<svg xmlns="http://www.w3.org/2000/svg" width="257" height="102" viewBox="0 0 257 102">
  <g fill="#FFF" fill-rule="evenodd">
    <g transform="translate(.5)">
      <path d="M38.921042,0 C60.4165399,0 77.842084,17.5383035 77.842084,39.1728972 L77.842084,61.8271028 C77.842084,83.4616965 60.4165399,101 38.921042,101 C17.4255441,101 0,83.4616965 0,61.8271028 L0,39.1728972 C0,17.5383035 17.4255441,0 38.921042,0 Z M38.7369673,23.2183908 C29.7590552,23.2183908 22.4810195,30.5105654 22.4810195,39.5059187 L22.480652,41.9486992 L22.4618949,41.9490479 L22.4618949,77.7816092 L22.7496779,77.7782579 C29.3501728,77.6243802 34.6538557,72.1909463 34.6538557,65.5107551 L34.6532504,64.6405455 C35.9581197,64.978809 37.3265676,65.1587751 38.7369673,65.1587751 C47.7148793,65.1587751 54.9929151,57.8666005 54.9929151,48.8712472 L54.9929151,39.5059187 C54.9929151,30.5105654 47.7148793,23.2183908 38.7369673,23.2183908 Z M38.7369673,35.4340367 C40.9814453,35.4340367 42.8009542,37.2570804 42.8009542,39.5059187 L42.8009542,48.8712472 C42.8009542,51.1200855 40.9814453,52.9431292 38.7369673,52.9431292 C36.4924893,52.9431292 34.6729803,51.1200855 34.6729803,48.8712472 L34.6729803,39.5059187 C34.6729803,37.2570804 36.4924893,35.4340367 38.7369673,35.4340367 Z"/>
      <path fill-rule="nonzero" d="M124.474445,21.4839485 C135.160944,21.4839485 143.824062,30.2443933 143.824062,41.0509497 L143.824062,52.3019754 C143.824062,63.1085318 135.160944,71.8689766 124.474445,71.8689766 C122.795776,71.8689766 121.167033,71.6528114 119.613954,71.2465061 L119.614277,72.5211898 C119.614277,80.4306047 113.286796,86.8621572 105.417641,87.0300392 L105.102064,87.0334026 L105.102064,43.9859999 L105.124064,43.9859485 L105.124828,41.0509497 C105.124828,30.2443933 113.787947,21.4839485 124.474445,21.4839485 Z M211.126583,21.4839485 C221.819368,21.4839485 230.487582,30.2944599 230.487582,41.1627765 L230.487582,52.4781027 C230.487582,63.3464193 221.819368,72.1569307 211.126583,72.1569307 C200.433799,72.1569307 191.765584,63.3464193 191.765584,52.4781027 L191.765584,41.1627765 C191.765584,30.2944599 200.433799,21.4839485 211.126583,21.4839485 Z M167.794823,20.554169 C178.487608,20.554169 187.155822,29.3646804 187.155822,40.232997 L187.155822,51.5483232 C187.155822,62.4166398 178.487608,71.2271512 167.794823,71.2271512 C157.102039,71.2271512 148.433824,62.4166398 148.433824,51.5483232 L148.433824,40.232997 C148.433824,29.3646804 157.102039,20.554169 167.794823,20.554169 Z M249.848582,6.60747664 L249.848582,56.4759138 C249.848582,64.5169936 243.414655,71.0553494 235.413964,71.2238206 L235.097344,71.2271512 L235.097344,21.3587141 C235.097344,13.2118306 241.701698,6.60747664 249.848582,6.60747664 Z M211.126583,36.2430695 C208.453387,36.2430695 206.286334,38.4456974 206.286334,41.1627765 L206.286334,52.4781027 C206.286334,55.1951818 208.453387,57.3978097 211.126583,57.3978097 C213.799779,57.3978097 215.966833,55.1951818 215.966833,52.4781027 L215.966833,41.1627765 C215.966833,38.4456974 213.799779,36.2430695 211.126583,36.2430695 Z M124.474445,36.1591994 C121.802821,36.1591994 119.637041,38.3493106 119.637041,41.0509497 L119.637041,52.3019754 C119.637041,55.0036145 121.802821,57.1937257 124.474445,57.1937257 C127.14607,57.1937257 129.31185,55.0036145 129.31185,52.3019754 L129.31185,41.0509497 C129.31185,38.3493106 127.14607,36.1591994 124.474445,36.1591994 Z M167.794823,35.31329 C165.121627,35.31329 162.954574,37.5159179 162.954574,40.232997 L162.954574,51.5483232 C162.954574,54.2654023 165.121627,56.4680302 167.794823,56.4680302 C170.468019,56.4680302 172.635073,54.2654023 172.635073,51.5483232 L172.635073,40.232997 C172.635073,37.5159179 170.468019,35.31329 167.794823,35.31329 Z"/>
    </g>
    <path fill-rule="nonzero" d="M143.092537,95 C140.071642,95 138.397015,93.4394904 138.397015,90.0955414 L138.397015,82.5159236 L137.641791,82.5159236 C136.525373,82.5159236 136,81.9426752 136,80.955414 L136,80.5732484 C136,79.6496815 136.492537,79.044586 137.608955,79.044586 L138.397015,79.044586 L138.397015,77.0700637 C138.397015,75.6369427 139.119403,75 140.367164,75 L140.826866,75 C142.074627,75 142.829851,75.5414013 142.829851,77.0700637 L142.829851,79.044586 L145.19403,79.044586 C146.277612,79.044586 146.835821,79.5541401 146.835821,80.5414013 L146.835821,80.9235669 C146.835821,81.9745223 146.244776,82.5159236 145.19403,82.5159236 L142.764179,82.5159236 L142.764179,89.1719745 C142.764179,90.7961783 143.256716,91.3694268 144.241791,91.3694268 C144.997015,91.3694268 145.653731,90.9872611 146.047761,90.4458599 C146.21194,90.4458599 147,91.0191083 147,92.2292994 C147,92.8980892 146.770149,93.5031847 146.179104,94.0127389 C145.522388,94.6178344 144.504478,95 143.092537,95 Z M148,86.9843444 C148,82.1311155 150.980973,79 155.547569,79 C160.019027,79 163,82.1311155 163,87.0469667 C163,91.8688845 160.019027,95 155.484144,95 C150.917548,95 148,91.8688845 148,86.9843444 Z M159,86.5306122 C159,83.5612245 157.638889,82 155.532407,82 C153.393519,82 152,83.5306122 152,86.5 C152,89.4387755 153.393519,91 155.532407,91 C157.606481,91 159,89.4387755 159,86.5306122 Z M171.099384,101 C166.281945,101 164,99.5464848 164,97.0105646 C164,95.0622357 165.774846,93.6396464 168.500502,93.0520551 C168.056791,92.7427966 167.739854,92.2479829 167.739854,91.5985399 C167.739854,90.8563194 168.246953,90.1759506 168.944214,89.866692 C166.345332,89.1863232 164.855729,87.299846 164.855729,84.8257776 C164.855729,81.516711 167.581386,79.166346 171.289546,79.166346 C172.335437,79.166346 173.317941,79.382827 174.17367,79.7848631 L174.839238,78.5787548 C175.37803,77.4035723 176.075291,76.9706103 176.899327,77.0015361 C178.420623,77.032462 179.08619,78.7643099 178.991109,78.9189392 L176.550696,81.3930076 C177.374732,82.3207833 177.850137,83.4650399 177.850137,84.7948517 C177.850137,87.8874373 175.473111,90.0522472 171.891726,90.1450247 L171.321239,90.1450247 C171.194465,90.299654 171.194465,90.5470608 171.384627,90.732616 C171.606482,91.3511331 172.937617,91.4748365 174.870931,92.0624278 C176.804246,92.6809449 178.832641,93.7942757 178.832641,96.2374183 C178.832641,99.0516711 176.138678,101 171.099384,101 Z M171.515723,88 C173.025157,88 174,86.9468085 174,84.9680851 C174,83.0212766 173.025157,82 171.484277,82 C170.006289,82 169,83.0212766 169,84.9680851 C169,86.9468085 170.006289,88 171.515723,88 Z M171.41784,99 C173.685446,99 175,98.3230769 175,97.0923077 C175,96.2 174.079812,95.7076923 172.798122,95.3384615 C172.370892,95.2153846 171.910798,95.0923077 171.450704,95 C169.478873,95.2769231 168,96.0769231 168,97.2461538 C168,98.3538462 169.183099,99 171.41784,99 Z M179,87.1091618 C179,82.2436647 181.881432,79 186.17226,79 C190.431767,79 193,81.9317739 193,86.5165692 L193,86.797271 C193,87.5769981 192.718121,88.0136452 191.872483,88.0136452 L182.914989,88.0136452 C182.946309,88.1695906 182.946309,88.3879142 182.977629,88.5438596 C183.259508,90.6023392 184.668904,91.7251462 186.548098,91.7251462 C188.364653,91.7251462 189.42953,90.8518519 190.024609,89.5730994 C190.369128,89.5419103 192.342282,89.7602339 192.342282,91.4444444 C192.342282,92.2553606 191.903803,93.0974659 190.964206,93.7836257 C189.993289,94.4697856 188.458613,95 186.391499,95 C181.944072,95 179,92.037037 179,87.1091618 Z M189,86 C188.937824,83.5384615 187.974093,82 186.139896,82 C184.367876,82 183.186528,83.5726496 183,86 L189,86 Z M201.092537,95 C198.071642,95 196.397015,93.4394904 196.397015,90.0955414 L196.397015,82.5159236 L195.641791,82.5159236 C194.525373,82.5159236 194,81.9426752 194,80.955414 L194,80.5732484 C194,79.6496815 194.492537,79.044586 195.608955,79.044586 L196.397015,79.044586 L196.397015,77.0700637 C196.397015,75.6369427 197.119403,75 198.367164,75 L198.826866,75 C200.074627,75 200.829851,75.5414013 200.829851,77.0700637 L200.829851,79.044586 L203.19403,79.044586 C204.277612,79.044586 204.835821,79.5541401 204.835821,80.5414013 L204.835821,80.9235669 C204.835821,81.9745223 204.244776,82.5159236 203.19403,82.5159236 L200.764179,82.5159236 L200.764179,89.1719745 C200.764179,90.7961783 201.256716,91.3694268 202.241791,91.3694268 C202.997015,91.3694268 203.653731,90.9872611 204.047761,90.4458599 C204.21194,90.4458599 205,91.0191083 205,92.2292994 C205,92.8980892 204.770149,93.5031847 204.179104,94.0127389 C203.522388,94.6178344 202.504478,95 201.092537,95 Z M215.83871,79.1146132 C219.548387,79.1146132 221,81.8567335 221,85.260745 L221,92.9512894 C221,94.4326648 220.258065,95 219.096774,95 L218.580645,95 C217.354839,95 216.612903,94.4641834 216.612903,92.9512894 L216.612903,85.6074499 C216.612903,83.8424069 215.806452,82.7077364 214.225806,82.7077364 C212.645161,82.7077364 211.516129,83.7163324 211.354839,85.4183381 L211.354839,92.9512894 C211.354839,94.4326648 210.645161,95 209.451613,95 L208.967742,95 C207.741935,95 207,94.4641834 207,92.9512894 L207,73.5358166 C207,73.3782235 207.774194,73 208.677419,73 C210,73 211.354839,73.7249284 211.354839,76.3724928 L211.354839,81.8882521 C212.193548,80.2492837 213.645161,79.1146132 215.83871,79.1146132 Z M223,87.1091618 C223,82.2436647 225.881432,79 230.17226,79 C234.431767,79 237,81.9317739 237,86.5165692 L237,86.797271 C237,87.5769981 236.718121,88.0136452 235.872483,88.0136452 L226.914989,88.0136452 C226.946309,88.1695906 226.946309,88.3879142 226.977629,88.5438596 C227.259508,90.6023392 228.668904,91.7251462 230.548098,91.7251462 C232.364653,91.7251462 233.42953,90.8518519 234.024609,89.5730994 C234.369128,89.5419103 236.342282,89.7602339 236.342282,91.4444444 C236.342282,92.2553606 235.903803,93.0974659 234.964206,93.7836257 C233.993289,94.4697856 232.458613,95 230.391499,95 C225.944072,95 223,92.037037 223,87.1091618 Z M233,86 C232.937824,83.5384615 231.974093,82 230.139896,82 C228.367876,82 227.186528,83.5726496 227,86 L233,86 Z M247.373418,79 C249.018987,79 250,80.0793651 250,81.6666667 C250,83.6031746 248.639241,84.2063492 248.575949,84.1746032 C248.196203,83.7301587 247.626582,83.3809524 246.835443,83.3809524 C245.063291,83.3809524 244.272152,85.031746 244.272152,88.1746032 L244.272152,92.9365079 C244.272152,94.4285714 243.575949,95 242.373418,95 L241.93038,95 C240.727848,95 240,94.4603175 240,92.9365079 L240,79.6666667 C240,79.5079365 240.696203,79.1904762 241.550633,79.1904762 C242.563291,79.1904762 243.35443,79.6349206 243.702532,80.8412698 C243.829114,81.2857143 243.924051,81.7936508 243.955696,82.3333333 C244.43038,80.2698413 245.632911,79 247.373418,79 Z"/>
  </g>
</svg>
