<svg width="366" height="357" viewBox="0 0 366 357" fill="none" xmlns="http://www.w3.org/2000/svg">
<path d="M212.2 356.329L232.2 351.829V340.329C232.2 333.129 235.2 328.662 236.7 327.329C238.534 327.995 244.5 329.329 253.7 329.329C262.9 329.329 268.534 327.995 270.2 327.329V333.329C270.2 338.529 267.2 347.829 265.7 351.829C267.867 352.329 273.4 353.329 278.2 353.329C283 353.329 288.2 352.329 290.2 351.829L288.7 346.329C294.3 341.929 299.034 324.495 300.7 316.329C307.9 311.129 310.7 300.162 311.2 295.329C317.2 290.129 312.7 286.162 309.7 284.829C309.7 268.829 303.7 245.829 300.7 236.329C305.9 235.129 315.534 229.162 319.7 226.329C338.5 212.329 350.2 185.495 353.7 173.829C361.3 167.429 364.533 149.495 365.2 141.329C365.6 114.529 355.7 103.495 350.7 101.329L348.2 92.8288C340.2 63.6288 310.867 45.3288 297.2 39.8288L292.7 3.32883C290.7 -1.87117 287.2 0.162163 285.7 1.82883L283.2 7.32883L274.7 33.8288L245.7 31.3288C204.5 31.3288 174.533 58.3288 164.7 71.8288L157.7 61.8288C154.7 55.1622 147.2 45.5288 141.2 60.3288C135.2 75.1288 142.033 90.8288 146.2 96.8288L143.2 100.329C141.033 99.1622 135.8 95.7288 132.2 91.3288C127.7 85.8288 119.7 87.8288 121.2 98.8288C122.4 107.629 129.033 115.162 132.2 117.829L87.2002 121.829C81.8668 122.329 67.0002 121.429 50.2002 113.829C33.4002 106.229 35.5335 113.995 38.7002 118.829C35.0335 117.162 24.7002 112.829 12.7002 108.829C0.700165 104.829 -0.633179 108.495 0.200165 110.829C2.60016 129.229 22.5335 141.495 32.2002 145.329C23.4002 149.329 10.5335 149.329 5.20016 148.829C12.0002 167.629 35.0335 170.995 45.7002 170.329C42.5335 174.162 34.5002 181.529 27.7002 180.329C20.9002 179.129 18.8668 179.829 18.7002 180.329C20.7002 185.929 25.5335 190.329 27.7002 191.829C42.2002 202.829 56.2002 191.829 60.2002 189.329C63.4002 187.329 63.5335 188.495 63.2002 189.329C63.2002 196.129 52.5335 204.829 47.2002 208.329C46.0002 213.929 54.3668 215.995 58.7002 216.329C75.1002 218.329 84.5335 206.162 87.2002 199.829C90.3668 203.329 95.9002 211.829 92.7002 217.829C89.5002 223.829 94.0335 223.329 96.7002 222.329C106.504 219.799 109.869 211.685 110.602 205.597C111.26 208.132 112.637 212.019 115.2 217.829C121.2 231.429 127.367 220.829 129.7 213.829C130.033 211.495 131 207.529 132.2 210.329C133.4 213.129 140.033 218.162 143.2 220.329C142.367 221.662 143.3 225.229 153.7 228.829C164.1 232.429 171.7 228.662 174.2 226.329L172.7 234.329C168.7 243.995 160.3 266.429 158.7 278.829C156.7 294.329 158.2 294.829 160.7 304.829C162.7 312.829 165.2 313.162 166.2 312.329L172.7 301.829C176.2 303.829 183.9 308.529 186.7 311.329C189.5 314.129 189.867 310.162 189.7 307.829L186.844 283.55C188.039 291.85 193.499 299.127 196.2 301.829C198.2 306.629 203.033 310.162 205.2 311.329V316.329C205.6 335.929 210.033 351.162 212.2 356.329Z" fill="white"/>
</svg>
